<svg xmlns="http://www.w3.org/2000/svg" width="16" height="14.933" viewBox="0 0 16 14.933"><g transform="translate(0 -18.271)"><g transform="translate(0 18.271)"><path d="M38.678,22.538a2.134,2.134,0,1,0-1.508-.625A2.055,2.055,0,0,0,38.678,22.538Z" transform="translate(-35.478 -18.271)" fill="#2699fb"/><path d="M165.386,96.826a3.2,3.2,0,1,0-.938-2.263A3.084,3.084,0,0,0,165.386,96.826Z" transform="translate(-159.649 -89.23)" fill="#2699fb"/><path d="M367.585,22.538a2.134,2.134,0,1,0-1.508-.625A2.055,2.055,0,0,0,367.585,22.538Z" transform="translate(-354.785 -18.271)" fill="#2699fb"/><path d="M382.768,164.456a1.594,1.594,0,0,0-.362.175,5.472,5.472,0,0,1-.812.354,2.927,2.927,0,0,1-.992.179,3.346,3.346,0,0,1-1.108-.192,4.179,4.179,0,0,1,.042.55,3.668,3.668,0,0,1-.675,2.133,2.874,2.874,0,0,1,2.209,1.067h1.117a1.911,1.911,0,0,0,1.15-.338,1.142,1.142,0,0,0,.467-.987Q383.8,164.456,382.768,164.456Z" transform="translate(-367.802 -160.189)" fill="#2699fb"/><path d="M84.678,295.363a7.058,7.058,0,0,0-.221-.9,4.294,4.294,0,0,0-.358-.812,2.938,2.938,0,0,0-.517-.675,2.178,2.178,0,0,0-.713-.446,2.5,2.5,0,0,0-.929-.167.981.981,0,0,0-.358.179q-.275.179-.608.4a3.869,3.869,0,0,1-4.033,0q-.333-.221-.608-.4a.982.982,0,0,0-.358-.179,2.5,2.5,0,0,0-.929.167,2.175,2.175,0,0,0-.712.446,2.931,2.931,0,0,0-.517.675,4.286,4.286,0,0,0-.358.812,7.077,7.077,0,0,0-.221.9,8.471,8.471,0,0,0-.117.908q-.029.421-.029.863a2.076,2.076,0,0,0,.608,1.579,2.249,2.249,0,0,0,1.617.579H82.6a2.249,2.249,0,0,0,1.617-.579,2.076,2.076,0,0,0,.608-1.579q0-.442-.029-.863A8.614,8.614,0,0,0,84.678,295.363Z" transform="translate(-70.957 -284.359)" fill="#2699fb"/><path d="M4.942,167.655a3.668,3.668,0,0,1-.675-2.133,4.162,4.162,0,0,1,.042-.55,3.349,3.349,0,0,1-1.108.192,2.926,2.926,0,0,1-.992-.179,5.474,5.474,0,0,1-.812-.354,1.591,1.591,0,0,0-.363-.175Q0,164.455,0,167.4a1.142,1.142,0,0,0,.467.987,1.911,1.911,0,0,0,1.15.338H2.733A2.873,2.873,0,0,1,4.942,167.655Z" transform="translate(0 -160.188)" fill="#2699fb"/></g></g></svg>