<svg xmlns="http://www.w3.org/2000/svg" width="16" height="16" viewBox="0 0 16 16"><g transform="translate(0 -0.005)"><path d="M15.365,4.9A7.9,7.9,0,0,0,11.1.64,7.893,7.893,0,0,0,5.037.583,8.086,8.086,0,0,0,2.49,2.213L1.136.869A.592.592,0,0,0,.417.723.623.623,0,0,0,0,1.338V6a.641.641,0,0,0,.2.469.641.641,0,0,0,.469.2H5.334a.623.623,0,0,0,.615-.417A.592.592,0,0,0,5.8,5.536L4.375,4.1A5.177,5.177,0,0,1,6.042,3.041,5.289,5.289,0,0,1,8,2.671a5.2,5.2,0,0,1,2.068.422,5.283,5.283,0,0,1,2.844,2.844,5.279,5.279,0,0,1,0,4.135,5.283,5.283,0,0,1-2.844,2.844A5.2,5.2,0,0,1,8,13.338a5.278,5.278,0,0,1-4.208-2.073.325.325,0,0,0-.24-.125.375.375,0,0,0-.26.094L1.865,12.671a.309.309,0,0,0-.089.214.372.372,0,0,0,.068.234,7.819,7.819,0,0,0,2.75,2.13A7.945,7.945,0,0,0,8,16a7.784,7.784,0,0,0,3.1-.635,7.9,7.9,0,0,0,4.26-4.26,7.9,7.9,0,0,0,0-6.208Z" transform="translate(0)" fill="#2699fb"/></g></svg>