<svg xmlns="http://www.w3.org/2000/svg" width="14.866" height="16.01" viewBox="0 0 14.866 16.01"><g transform="translate(-18.276)"><path d="M32.8,2.627a1.1,1.1,0,0,0-.8-.34H30.855V1.429a1.377,1.377,0,0,0-.42-1.01A1.377,1.377,0,0,0,29.426,0h-.572a1.376,1.376,0,0,0-1.01.42,1.376,1.376,0,0,0-.42,1.01v.858H23.994V1.43a1.376,1.376,0,0,0-.42-1.01A1.376,1.376,0,0,0,22.564,0h-.572a1.377,1.377,0,0,0-1.01.42,1.377,1.377,0,0,0-.42,1.01v.858H19.42a1.1,1.1,0,0,0-.8.34,1.1,1.1,0,0,0-.34.8V14.867A1.16,1.16,0,0,0,19.42,16.01H32a1.16,1.16,0,0,0,1.144-1.143V3.431A1.1,1.1,0,0,0,32.8,2.627Zm-10.81,12.24H19.42V12.293h2.573Zm0-3.145H19.42V8.863h2.573Zm0-3.431H19.42V5.718h2.573Zm-.2-4.087a.274.274,0,0,1-.085-.2V1.43a.29.29,0,0,1,.286-.286h.572a.29.29,0,0,1,.286.286V4a.29.29,0,0,1-.286.286h-.572A.275.275,0,0,1,21.792,4.2Zm3.632,10.663H22.564V12.293h2.859v2.573Zm0-3.145H22.564V8.863h2.859v2.859Zm0-3.431H22.564V5.718h2.859V8.291Zm3.431,6.576H26V12.293h2.859Zm0-3.145H26V8.863h2.859Zm0-3.431H26V5.718h2.859Zm-.2-4.087a.275.275,0,0,1-.085-.2V1.43a.29.29,0,0,1,.286-.286h.572a.29.29,0,0,1,.286.286V4a.29.29,0,0,1-.286.286h-.572A.274.274,0,0,1,28.653,4.2ZM32,14.866H29.426V12.293H32Zm0-3.145H29.426V8.863H32Zm0-3.431H29.426V5.718H32Z" transform="translate(0 0)" fill="#2699fb"/></g></svg>