<svg xmlns="http://www.w3.org/2000/svg" width="12.004" height="12.928" viewBox="0 0 12.004 12.928"><g transform="translate(-18.276)"><path d="M30.006,2.121a.887.887,0,0,0-.649-.274h-.923V1.154a1.112,1.112,0,0,0-.339-.815A1.112,1.112,0,0,0,27.279,0h-.462A1.111,1.111,0,0,0,26,.339a1.111,1.111,0,0,0-.339.815v.693h-2.77V1.154a1.111,1.111,0,0,0-.339-.815A1.111,1.111,0,0,0,21.739,0h-.462a1.112,1.112,0,0,0-.815.339,1.112,1.112,0,0,0-.339.815v.693H19.2a.887.887,0,0,0-.649.274.887.887,0,0,0-.274.649V12a.936.936,0,0,0,.923.923H29.357A.936.936,0,0,0,30.28,12V2.77A.888.888,0,0,0,30.006,2.121ZM21.277,12H19.2V9.927h2.078Zm0-2.539H19.2V7.157h2.078Zm0-2.77H19.2V4.617h2.078Zm-.162-3.3a.222.222,0,0,1-.069-.162V1.154a.234.234,0,0,1,.231-.231h.462a.234.234,0,0,1,.231.231V3.232a.234.234,0,0,1-.231.231h-.462A.222.222,0,0,1,21.115,3.394ZM24.047,12H21.739V9.927h2.309V12Zm0-2.539H21.739V7.157h2.309V9.465Zm0-2.77H21.739V4.617h2.309V6.695ZM26.818,12H24.509V9.927h2.309Zm0-2.539H24.509V7.157h2.309Zm0-2.77H24.509V4.617h2.309Zm-.162-3.3a.222.222,0,0,1-.068-.162V1.154a.234.234,0,0,1,.231-.231h.462a.234.234,0,0,1,.231.231V3.232a.234.234,0,0,1-.231.231h-.462A.221.221,0,0,1,26.655,3.394Zm2.7,8.61H27.279V9.927h2.078Zm0-2.539H27.279V7.157h2.078Zm0-2.77H27.279V4.617h2.078Z" transform="translate(0 0)" fill="#212121"/></g></svg>