<svg xmlns="http://www.w3.org/2000/svg" width="10.667" height="16" viewBox="0 0 10.667 16">
  <g id="map-marker" transform="translate(-53.09 30)">
    <path id="Path_665" data-name="Path 665" d="M82.194,1.562a5.331,5.331,0,0,0-7.542,0A5.138,5.138,0,0,0,73.09,5.333,4.385,4.385,0,0,0,73.434,7.2l3.8,8.063a1.2,1.2,0,0,0,.484.541,1.347,1.347,0,0,0,1.406,0,1.264,1.264,0,0,0,.495-.541L83.413,7.2a4.383,4.383,0,0,0,.344-1.865A5.137,5.137,0,0,0,82.194,1.562ZM80.309,7.219a2.666,2.666,0,0,1-3.771,0,2.569,2.569,0,0,1-.781-1.885,2.569,2.569,0,0,1,.781-1.885,2.666,2.666,0,0,1,3.771,0,2.569,2.569,0,0,1,.781,1.885A2.57,2.57,0,0,1,80.309,7.219Z" transform="translate(-20 -30)" fill="#2699fb"/>
  </g>
</svg>
