<svg xmlns="http://www.w3.org/2000/svg" width="15" height="16" viewBox="0 0 15 16"><g transform="translate(-0.5 0)"><path d="M150.5.466V4.317a1.346,1.346,0,0,1,1.242.144l1.907,1.429a1.37,1.37,0,0,1,.58,1.133,1.4,1.4,0,0,1-.623,1.164l-1.822,1.368a1.349,1.349,0,0,1-1.284.174v2.919a.466.466,0,0,0,.466.466h4.2V3.263a1.406,1.406,0,0,1,.627-1.166l2.8-2.1h-7.618a.466.466,0,0,0-.466.466Zm0,0" transform="translate(-145.255)" fill="#2699fb"/><path d="M335.162.469a.469.469,0,0,0-.236-.408.464.464,0,0,0-.47.006L330.726,2.88a.469.469,0,0,0-.226.4v12.25a.466.466,0,0,0,.706.4l3.729-2.812a.47.47,0,0,0,.226-.4ZM331.9,9.407a.469.469,0,1,1,.466-.469A.467.467,0,0,1,331.9,9.407Zm0,0" transform="translate(-319.662 0)" fill="#2699fb"/><path d="M.966,168.8h4.2v.466a.466.466,0,0,0,.725.388l1.865-1.4a.466.466,0,0,0,0-.776l-1.865-1.4a.466.466,0,0,0-.725.388v.466H.966A.466.466,0,0,0,.5,167.4v.932A.466.466,0,0,0,.966,168.8Zm0,0" transform="translate(0 -160.805)" fill="#2699fb"/></g></svg>