<svg xmlns="http://www.w3.org/2000/svg" width="15.004" height="16.004" viewBox="0 0 15.004 16.004"><g transform="translate(-0.5)"><path d="M1.21.067a.469.469,0,0,0-.71.4V12.723a.469.469,0,0,0,.228.4l3.751,2.813a.469.469,0,0,0,.71-.4V3.282a.469.469,0,0,0-.228-.4ZM3.781,9.409A.469.469,0,1,1,4.25,8.94.469.469,0,0,1,3.781,9.409Zm0,0" transform="translate(0 0)" fill="#2699fb"/><path d="M245.918,166.079a.469.469,0,0,0-.729.39v.469h-4.22a.469.469,0,0,0-.469.469v.938a.469.469,0,0,0,.469.469h4.22v.469a.469.469,0,0,0,.729.39l1.876-1.407a.469.469,0,0,0,0-.78Zm0,0" transform="translate(-232.498 -160.811)" fill="#2699fb"/><path d="M74.744,7.533V6.6A1.408,1.408,0,0,1,76.15,5.189h2.344V.469A.469.469,0,0,0,78.026,0H70.363l2.812,2.109a1.414,1.414,0,0,1,.631,1.173v9.909h4.22a.469.469,0,0,0,.469-.469V8.94H76.15a1.408,1.408,0,0,1-1.407-1.407Zm0,0" transform="translate(-67.679)" fill="#2699fb"/></g></svg>