<svg xmlns="http://www.w3.org/2000/svg" width="16" height="16" viewBox="0 0 16 16"><g transform="translate(0 0)"><path d="M7.893,0A8,8,0,1,0,16,7.892,8,8,0,0,0,7.893,0ZM8.78,2.666A.92.92,0,0,1,9.833,3.678a1.343,1.343,0,0,1-1.46,1.3c-.77,0-1.137-.388-1.115-1.028A1.378,1.378,0,0,1,8.78,2.666ZM6.7,13c-.556,0-.963-.337-.574-1.82l.638-2.63c.111-.422.129-.59,0-.59a4.232,4.232,0,0,0-1.314.578l-.278-.455A7.394,7.394,0,0,1,8.739,6.29c.556,0,.648.657.371,1.669l-.73,2.765c-.129.489-.074.657.055.657a2.878,2.878,0,0,0,1.25-.624l.315.422A5.811,5.811,0,0,1,6.7,13Z" transform="translate(0 0)" fill="#2699fb"/></g></svg>