<svg xmlns="http://www.w3.org/2000/svg" width="15.084" height="16" viewBox="0 0 15.084 16"><g transform="translate(-28 -311)"><g transform="translate(28 311)"><g transform="translate(0)"><path d="M9.781,18.184a.905.905,0,0,1-.5.349l-1,.273a.9.9,0,0,1-1.134-.785L7.062,16.99a.883.883,0,0,1,.157-.594l.037-.053H3.691a.524.524,0,0,1,0-1.049H8.006l.964-1.377H3.691a.525.525,0,0,1,0-1.049l6.021-.015,2.258-3.236v-2.4a.7.7,0,0,0-.7-.712H9.544V7.876A1.162,1.162,0,0,1,8.372,9.032H4.9A1.147,1.147,0,0,1,3.739,7.876V6.509H1.992a.711.711,0,0,0-.712.712V19.448a.727.727,0,0,0,.712.729h9.28a.715.715,0,0,0,.7-.729V15.076ZM3.691,10.443H9.574a.524.524,0,0,1,0,1.049H3.691a.524.524,0,0,1,0-1.049Z" transform="translate(-1.28 -4.178)" fill="#2699fb"/><path d="M10.546,4.168h3.473a.477.477,0,0,0,.477-.477v-2a.477.477,0,0,0-.477-.477H13.5a1.222,1.222,0,0,0-2.445,0h-.505a.477.477,0,0,0-.477.477v2A.477.477,0,0,0,10.546,4.168ZM12.274.677a.545.545,0,0,1,.545.539H11.728A.546.546,0,0,1,12.274.677Z" transform="translate(-6.923)" fill="#2699fb"/><path d="M29.7,7.392a.34.34,0,0,0-.14-.218l-.87-.606a.337.337,0,0,0-.47.083l-6.16,8.834,1.423.993,6.161-8.833A.34.34,0,0,0,29.7,7.392Z" transform="translate(-14.625 -4.176)" fill="#2699fb"/><path d="M19.353,34.394l.089,1.037a.2.2,0,0,0,.085.148.205.205,0,0,0,.115.037.189.189,0,0,0,.053-.008l1-.275a.2.2,0,0,0,.112-.079l.377-.541-1.424-.993-.377.541A.2.2,0,0,0,19.353,34.394Z" transform="translate(-12.882 -21.649)" fill="#2699fb"/></g></g></g></svg>